<svg xmlns="http://www.w3.org/2000/svg" viewBox="0 0 64 64" role="img" aria-label="Assay">
  <defs>
    <linearGradient id="aBg" x1="0" y1="0" x2="0" y2="1">
      <stop offset="0" stop-color="#1c2233"/>
      <stop offset="1" stop-color="#10131a"/>
    </linearGradient>
    <linearGradient id="aBlue" x1="0" y1="0" x2="1" y2="1">
      <stop offset="0" stop-color="#bcd3ff"/>
      <stop offset="1" stop-color="#6f9bff"/>
    </linearGradient>
    <linearGradient id="aGold" x1="0" y1="0" x2="1" y2="1">
      <stop offset="0" stop-color="#ffd993"/>
      <stop offset="1" stop-color="#e0a23a"/>
    </linearGradient>
  </defs>

  <rect x="1.25" y="1.25" width="61.5" height="61.5" rx="15" fill="url(#aBg)" stroke="#2c3446" stroke-width="1.5"/>

  <!-- post + base + tilted beam (bold so they survive at favicon size) -->
  <g fill="none" stroke="url(#aBlue)" stroke-linecap="round" stroke-linejoin="round">
    <path d="M32 16V49" stroke-width="5"/>
    <path d="M21 51h22" stroke-width="5"/>
    <path d="M13 14 51 22" stroke-width="5"/>
    <path d="M13 14v6" stroke-width="3.2"/>
    <path d="M51 22v6" stroke-width="3.2"/>
  </g>

  <!-- solid pans read as clear shapes even at 24px -->
  <g fill="url(#aBlue)">
    <path d="M5 20h16a8 8 0 0 1-16 0Z"/>
    <path d="M43 28h16a8 8 0 0 1-16 0Z"/>
  </g>

  <!-- gold pivot + the gold bar being weighed (enlarged) -->
  <circle cx="32" cy="18" r="4.6" fill="url(#aGold)"/>
  <rect x="45" y="30.4" width="12" height="5" rx="1.4" fill="url(#aGold)"/>
</svg>
